<svg xmlns="http://www.w3.org/2000/svg" viewBox="0 0 24 25" fill="none">
  <path d="M9 9.87842V7.07861C9 5.95851 9 5.39804 9.21799 4.97021C9.40973 4.59389 9.71547 4.28815 10.0918 4.0964C10.5196 3.87842 11.0801 3.87842 12.2002 3.87842H17.8002C18.9203 3.87842 19.4801 3.87842 19.9079 4.0964C20.2842 4.28815 20.5905 4.59389 20.7822 4.97021C21.0002 5.39804 21.0002 5.95809 21.0002 7.0782V12.6782C21.0002 13.7983 21.0002 14.3584 20.7822 14.7862C20.5905 15.1625 20.2839 15.4689 19.9076 15.6606C19.4802 15.8784 18.921 15.8784 17.8031 15.8784H15M9 9.87842H6.2002C5.08009 9.87842 4.51962 9.87842 4.0918 10.0964C3.71547 10.2882 3.40973 10.5939 3.21799 10.9702C3 11.398 3 11.9585 3 13.0786V18.6786C3 19.7987 3 20.3585 3.21799 20.7863C3.40973 21.1626 3.71547 21.4689 4.0918 21.6606C4.5192 21.8784 5.07899 21.8784 6.19691 21.8784H11.8036C12.9215 21.8784 13.4805 21.8784 13.9079 21.6606C14.2842 21.4689 14.5905 21.1623 14.7822 20.786C15 20.3586 15 19.7994 15 18.6815V15.8784M9 9.87842H11.8002C12.9203 9.87842 13.4801 9.87842 13.9079 10.0964C14.2842 10.2882 14.5905 10.5939 14.7822 10.9702C15 11.3976 15 11.9574 15 13.0754L15 15.8784" stroke="white" stroke-linecap="round" stroke-linejoin="round"/>
</svg>