<svg xmlns="http://www.w3.org/2000/svg" viewBox="0 0 24 25" fill="none">
  <g opacity="0.8">
    <path d="M9 15.5V18.5C9 20.1569 7.65685 21.5 6 21.5C4.34315 21.5 3 20.1569 3 18.5C3 16.8431 4.34315 15.5 6 15.5H9ZM9 15.5H15M9 15.5V9.5M15 15.5V18.5C15 20.1569 16.3431 21.5 18 21.5C19.6569 21.5 21 20.1569 21 18.5C21 16.8431 19.6569 15.5 18 15.5H15ZM15 15.5V9.5M15 9.5H9M15 9.5V6.5C15 4.84315 16.3431 3.5 18 3.5C19.6569 3.5 21 4.84315 21 6.5C21 8.15685 19.6569 9.5 18 9.5H15ZM9 9.5V6.5C9 4.84315 7.65685 3.5 6 3.5C4.34315 3.5 3 4.84315 3 6.5C3 8.15685 4.34315 9.5 6 9.5H9Z" stroke="white" stroke-linecap="round" stroke-linejoin="round"/>
  </g>
</svg>